<?xml version="1.0" standalone="no"?>
<!DOCTYPE svg PUBLIC "-//W3C//DTD SVG 1.1//EN" "http://www.w3.org/Graphics/SVG/1.1/DTD/svg11.dtd">
<svg version="1.1" xmlns="http://www.w3.org/2000/svg" viewBox="0 0 70.79077378751481 54.75800480436002" width="70.79077378751481" height="54.75800480436002"><!-- svg-source:excalidraw --><metadata></metadata><defs><style class="style-fonts">
      </style></defs><g stroke-linecap="round"><g transform="translate(54.756233495326455 21.490938486691217) rotate(270 0 6.034540292188353)"><path d="M0 0 C0 2.01, 0 10.06, 0 12.07 M0 0 C0 2.01, 0 10.06, 0 12.07" stroke="#6e757c" stroke-width="4" fill="none"></path></g></g><mask></mask><g stroke-linecap="round" transform="translate(19.374982920841717 33.91065812291303) rotate(270 3.836764313493404 7.010582367953589)"><path d="M1.92 0 C3.22 0, 4.53 0, 5.76 0 M1.92 0 C3.09 0, 4.25 0, 5.76 0 M5.76 0 C7.03 0, 7.67 0.64, 7.67 1.92 M5.76 0 C7.03 0, 7.67 0.64, 7.67 1.92 M7.67 1.92 C7.67 5.12, 7.67 8.32, 7.67 12.1 M7.67 1.92 C7.67 4.05, 7.67 6.19, 7.67 12.1 M7.67 12.1 C7.67 13.38, 7.03 14.02, 5.76 14.02 M7.67 12.1 C7.67 13.38, 7.03 14.02, 5.76 14.02 M5.76 14.02 C4.38 14.02, 3 14.02, 1.92 14.02 M5.76 14.02 C4.89 14.02, 4.03 14.02, 1.92 14.02 M1.92 14.02 C0.64 14.02, 0 13.38, 0 12.1 M1.92 14.02 C0.64 14.02, 0 13.38, 0 12.1 M0 12.1 C0 9.4, 0 6.7, 0 1.92 M0 12.1 C0 9.54, 0 6.97, 0 1.92 M0 1.92 C0 0.64, 0.64 0, 1.92 0 M0 1.92 C0 0.64, 0.64 0, 1.92 0" stroke="#6e757c" stroke-width="4" fill="none"></path></g><g stroke-linecap="round" transform="translate(19.356551231128492 6.826181945539815) rotate(270 3.836764313493404 7.010582367953589)"><path d="M1.92 0 C2.71 0, 3.51 0, 5.76 0 M1.92 0 C3.31 0, 4.7 0, 5.76 0 M5.76 0 C7.03 0, 7.67 0.64, 7.67 1.92 M5.76 0 C7.03 0, 7.67 0.64, 7.67 1.92 M7.67 1.92 C7.67 4.25, 7.67 6.57, 7.67 12.1 M7.67 1.92 C7.67 4.05, 7.67 6.17, 7.67 12.1 M7.67 12.1 C7.67 13.38, 7.03 14.02, 5.76 14.02 M7.67 12.1 C7.67 13.38, 7.03 14.02, 5.76 14.02 M5.76 14.02 C4.88 14.02, 4 14.02, 1.92 14.02 M5.76 14.02 C4.56 14.02, 3.37 14.02, 1.92 14.02 M1.92 14.02 C0.64 14.02, 0 13.38, 0 12.1 M1.92 14.02 C0.64 14.02, 0 13.38, 0 12.1 M0 12.1 C0 8.5, 0 4.9, 0 1.92 M0 12.1 C0 9.7, 0 7.29, 0 1.92 M0 1.92 C0 0.64, 0.64 0, 1.92 0 M0 1.92 C0 0.64, 0.64 0, 1.92 0" stroke="#6e757c" stroke-width="4" fill="none"></path></g><g stroke-linecap="round" transform="translate(16.116268340512192 11.635841729852817) rotate(270 9.792778878203706 15.909047218715813)"><path d="M4.9 0 C7.95 0, 11 0, 14.69 0 M4.9 0 C8.69 0, 12.48 0, 14.69 0 M14.69 0 C17.95 0, 19.59 1.63, 19.59 4.9 M14.69 0 C17.95 0, 19.59 1.63, 19.59 4.9 M19.59 4.9 C19.59 11.98, 19.59 19.06, 19.59 26.92 M19.59 4.9 C19.59 11.97, 19.59 19.04, 19.59 26.92 M19.59 26.92 C19.59 30.19, 17.95 31.82, 14.69 31.82 M19.59 26.92 C19.59 30.19, 17.95 31.82, 14.69 31.82 M14.69 31.82 C12.39 31.82, 10.1 31.82, 4.9 31.82 M14.69 31.82 C11.77 31.82, 8.85 31.82, 4.9 31.82 M4.9 31.82 C1.63 31.82, 0 30.19, 0 26.92 M4.9 31.82 C1.63 31.82, 0 30.19, 0 26.92 M0 26.92 C0 18.39, 0 9.87, 0 4.9 M0 26.92 C0 20.04, 0 13.17, 0 4.9 M0 4.9 C0 1.63, 1.63 0, 4.9 0 M0 4.9 C0 1.63, 1.63 0, 4.9 0" stroke="#d3d3d3" stroke-width="4" fill="none"></path></g><g stroke-linecap="round"><g transform="translate(37.30231386801222 24.78361771545513) rotate(270 7.609641456863187 2.4294978391046205)"><path d="M0 0 C0.61 0.81, 1.67 4.08, 3.64 4.86 C5.62 5.64, 9.91 5.59, 11.84 4.69 C13.77 3.79, 14.66 0.32, 15.22 -0.55 M0 0 C0.61 0.81, 1.67 4.08, 3.64 4.86 C5.62 5.64, 9.91 5.59, 11.84 4.69 C13.77 3.79, 14.66 0.32, 15.22 -0.55" stroke="#d3d3d3" stroke-width="4" fill="none"></path></g></g><mask></mask></svg>